<svg width="76" height="19" viewBox="0 0 76 19" fill="none" xmlns="http://www.w3.org/2000/svg">
<path d="M7.21424 18.273C8.494 18.273 9.59858 18.0138 10.5279 17.4954C11.4725 16.977 12.2038 16.2451 12.7218 15.2998C13.2398 14.3392 13.4988 13.2109 13.4988 11.9149V1.30273H9.95658V7.54651H9.888C9.5376 7.05859 9.0653 6.67741 8.47111 6.40296C7.89221 6.1285 7.25232 5.99128 6.5515 5.99128C5.45456 5.99128 4.4795 6.24286 3.62633 6.74602C2.78839 7.24919 2.12565 7.95053 1.63813 8.85013C1.16583 9.73451 0.929688 10.7637 0.929688 11.9377C0.929688 13.1575 1.18107 14.2477 1.68384 15.2083C2.1866 16.1688 2.90265 16.9236 3.832 17.4725C4.77659 18.0062 5.904 18.273 7.21424 18.273ZM7.21424 15.2083C6.40676 15.2083 5.75927 14.9186 5.27174 14.3392C4.78421 13.7445 4.54044 13.0127 4.54044 12.1436C4.54044 11.2897 4.78421 10.5731 5.27174 9.99371C5.75927 9.39905 6.40676 9.10172 7.21424 9.10172C8.03692 9.10172 8.68441 9.39905 9.1567 9.99371C9.64428 10.5731 9.888 11.2897 9.888 12.1436C9.888 13.0127 9.64428 13.7445 9.1567 14.3392C8.68441 14.9186 8.03692 15.2083 7.21424 15.2083Z" fill="#B7B7B7"/>
<path d="M21.9031 18.2734C20.6995 18.2734 19.6559 18.0447 18.7722 17.5872C17.9038 17.1146 17.2335 16.4818 16.7612 15.6889C16.2889 14.8808 16.0527 13.9889 16.0527 13.013V6.26611H19.595V12.9216C19.595 13.5315 19.8082 14.0651 20.2348 14.5225C20.6767 14.9647 21.2251 15.1858 21.8803 15.1858C22.5201 15.1858 23.0534 14.9647 23.4799 14.5225C23.9217 14.0651 24.1427 13.5315 24.1427 12.9216V6.26611H27.6849V13.013C27.6849 13.9889 27.4563 14.8808 26.9993 15.6889C26.5422 16.4818 25.8795 17.1146 25.011 17.5872C24.1426 18.0447 23.1067 18.2734 21.9031 18.2734Z" fill="#B7B7B7"/>
<path d="M30.334 17.9985V1.30273H33.8762V17.9985H30.334Z" fill="#B7B7B7"/>
<path d="M41.2015 18.2729C40.1502 18.2729 39.2285 18.0061 38.4362 17.4725C37.6592 16.9388 37.0498 16.2222 36.608 15.3226C36.1662 14.4077 35.9453 13.3786 35.9453 12.235C35.9453 11.0457 36.1966 9.98603 36.6994 9.05592C37.2174 8.11058 37.9487 7.36349 38.8933 6.81457C39.8531 6.26566 40.9882 5.99121 42.2984 5.99121C43.6086 5.99121 44.7208 6.26566 45.6349 6.81457C46.5643 7.36349 47.2727 8.10297 47.7602 9.03308C48.263 9.96313 48.5144 11.0075 48.5144 12.1663V17.9985H45.0407V16.123H44.9493C44.6141 16.7329 44.1494 17.2437 43.5553 17.6554C42.9611 18.067 42.1765 18.2729 41.2015 18.2729ZM42.2527 15.2082C43.0602 15.2082 43.7 14.9185 44.1723 14.3391C44.6598 13.7445 44.9036 13.005 44.9036 12.1206C44.9036 11.282 44.6598 10.573 44.1723 9.99364C43.7 9.39898 43.0602 9.10166 42.2527 9.10166C41.4148 9.10166 40.752 9.39898 40.2645 9.99364C39.7922 10.573 39.5561 11.282 39.5561 12.1206C39.5561 12.9897 39.7922 13.7216 40.2645 14.3162C40.752 14.9109 41.4148 15.2082 42.2527 15.2082Z" fill="#B7B7B7"/>
<path d="M51.1328 17.9985V1.30273H54.6751V17.9985H51.1328Z" fill="#B7B7B7"/>
<path d="M57.2932 17.9986V6.26581H60.8582V17.9986H57.2932ZM59.0758 4.93929C58.5121 4.93929 58.0245 4.73345 57.6132 4.32177C57.2018 3.9101 56.9961 3.42218 56.9961 2.85803C56.9961 2.27863 57.2018 1.7831 57.6132 1.37142C58.0245 0.959745 58.5121 0.753906 59.0758 0.753906C59.6547 0.753906 60.1422 0.959745 60.5383 1.37142C60.9497 1.7831 61.1553 2.27863 61.1553 2.85803C61.1553 3.42218 60.9497 3.9101 60.5383 4.32177C60.1422 4.73345 59.6547 4.93929 59.0758 4.93929Z" fill="#B7B7B7"/>
<path d="M62.584 17.9987L66.149 12.8756C65.2197 12.4029 64.5113 11.7778 64.0237 11.0001C63.5362 10.2073 63.2924 9.31533 63.2924 8.32425V6.26587H66.8346V8.1413C66.8346 8.69022 66.9869 9.1705 67.2916 9.58214C67.6116 9.97856 68.0077 10.2454 68.48 10.3827L71.1766 6.26587H75.176L71.7934 11.1831C72.8295 11.61 73.6222 12.2428 74.1706 13.0814C74.7343 13.92 75.0162 14.8653 75.0162 15.9175V17.9987H71.4508V16.0318C71.4508 15.4219 71.245 14.9035 70.834 14.4765C70.4224 14.0344 69.935 13.7828 69.3713 13.7218L66.5604 17.9987H62.584Z" fill="#B7B7B7"/>
</svg>
