<svg width="88" height="19" viewBox="0 0 88 19" fill="none" xmlns="http://www.w3.org/2000/svg">
<path d="M9.28329 6.92944V8.04662C8.35308 7.23201 7.14377 6.71997 5.74844 6.71997C2.70193 6.71997 0.0507812 9.21031 0.0507812 12.4454C0.0507812 15.6805 2.70193 18.1941 5.74844 18.1941C7.14377 18.1941 8.35308 17.6821 9.28329 16.8442V17.9847H11.7484V6.92944H9.28329ZM5.91123 15.8667C4.07403 15.8667 2.5624 14.3306 2.5624 12.4454C2.5624 10.5835 4.07403 9.0474 5.91123 9.0474C7.79496 9.0474 9.28329 10.5835 9.28329 12.4454C9.28329 14.3306 7.79496 15.8667 5.91123 15.8667Z" fill="#B7B7B7"/>
<path d="M22.0409 0.761719V8.04655C21.1107 7.23193 19.9014 6.71989 18.506 6.71989C15.4595 6.71989 12.8084 9.21023 12.8084 12.4453C12.8084 15.6805 15.4595 18.1941 18.506 18.1941C19.9014 18.1941 21.1107 17.682 22.0409 16.8441V17.9846H24.506V0.761719H22.0409ZM18.6688 15.8666C16.8316 15.8666 15.32 14.3305 15.32 12.4453C15.32 10.5834 16.8316 9.04732 18.6688 9.04732C20.5526 9.04732 22.0409 10.5834 22.0409 12.4453C22.0409 14.3305 20.5526 15.8666 18.6688 15.8666Z" fill="#B7B7B7"/>
<path d="M31.3997 18.264C34.6788 18.264 37.2602 15.6572 37.2602 12.492C37.2602 9.30339 34.6788 6.71997 31.3997 6.71997C28.1439 6.71997 25.5625 9.30339 25.5625 12.492C25.5625 15.6572 28.1439 18.264 31.3997 18.264ZM31.3997 15.9133C29.4927 15.9133 28.0741 14.3306 28.0741 12.492C28.0741 10.6533 29.4927 9.09391 31.3997 9.09391C33.3299 9.09391 34.7486 10.6533 34.7486 12.492C34.7486 14.3306 33.3299 15.9133 31.3997 15.9133Z" fill="#B7B7B7"/>
<path d="M44.3359 6.71989C42.9406 6.71989 41.7313 7.23193 40.8011 8.04655V0.761719H38.3359V17.9846H40.8011V16.8441C41.7313 17.682 42.9406 18.1941 44.3359 18.1941C47.3824 18.1941 50.0336 15.6805 50.0336 12.4453C50.0336 9.21023 47.3824 6.71989 44.3359 6.71989ZM44.1732 15.8666C42.2894 15.8666 40.8011 14.3305 40.8011 12.4453C40.8011 10.5834 42.2894 9.04732 44.1732 9.04732C46.0104 9.04732 47.522 10.5834 47.522 12.4453C47.522 14.3305 46.0104 15.8666 44.1732 15.8666Z" fill="#B7B7B7"/>
<path d="M59.5567 6.92944V8.04662C58.6265 7.23201 57.4172 6.71997 56.0219 6.71997C52.9754 6.71997 50.3242 9.21031 50.3242 12.4454C50.3242 15.6805 52.9754 18.1941 56.0219 18.1941C57.4172 18.1941 58.6265 17.6821 59.5567 16.8442V17.9847H62.0219V6.92944H59.5567ZM56.1847 15.8667C54.3475 15.8667 52.8358 14.3306 52.8358 12.4454C52.8358 10.5835 54.3475 9.0474 56.1847 9.0474C58.0684 9.0474 59.5567 10.5835 59.5567 12.4454C59.5567 14.3306 58.0684 15.8667 56.1847 15.8667Z" fill="#B7B7B7"/>
<path d="M68.9192 18.264C71.0124 18.264 72.8495 17.2166 73.8961 15.5875L71.8029 14.3306C71.198 15.3081 70.1283 15.9133 68.9192 15.9133C67.0355 15.9133 65.5937 14.3539 65.5937 12.492C65.5937 10.6301 67.0355 9.09391 68.9192 9.09391C70.1053 9.09391 71.1052 9.62921 71.7331 10.5602L73.8263 9.32665C72.7797 7.74406 70.9893 6.71997 68.9192 6.71997C65.6867 6.71997 63.082 9.28014 63.082 12.492C63.082 15.6805 65.6867 18.264 68.9192 18.264Z" fill="#B7B7B7"/>
<path d="M79.5638 18.264C82.8431 18.264 85.4247 15.6572 85.4247 12.492C85.4247 9.30339 82.8431 6.71997 79.5638 6.71997C76.3082 6.71997 73.7266 9.30339 73.7266 12.492C73.7266 15.6572 76.3082 18.264 79.5638 18.264ZM79.5638 15.9133C77.6569 15.9133 76.2384 14.3306 76.2384 12.492C76.2384 10.6533 77.6569 9.09391 79.5638 9.09391C81.4944 9.09391 82.9129 10.6533 82.9129 12.492C82.9129 14.3306 81.4944 15.9133 79.5638 15.9133Z" fill="#B7B7B7"/>
<path d="M26.6001 3.4459C26.4624 3.20746 26.5441 2.90255 26.7824 2.76487C27.0207 2.6272 27.3254 2.7089 27.4631 2.94736L28.7087 5.10614C28.8463 5.3446 28.7647 5.64951 28.5263 5.78718C28.2881 5.92485 27.9833 5.84315 27.8457 5.6047L26.6001 3.4459Z" fill="#B7B7B7"/>
<path d="M34.127 2.94736C34.2646 2.7089 34.5693 2.6272 34.8076 2.76487C35.0459 2.90255 35.1276 3.20746 34.99 3.4459L33.7443 5.6047C33.6067 5.84314 33.302 5.92485 33.0637 5.78718C32.8253 5.64951 32.7437 5.3446 32.8813 5.10614L34.127 2.94736Z" fill="#B7B7B7"/>
<path d="M30.3145 2.58165C30.3145 2.30639 30.5374 2.08325 30.8126 2.08325C31.0876 2.08325 31.3107 2.30639 31.3107 2.58165V5.07363C31.3107 5.34889 31.0876 5.57203 30.8126 5.57203C30.5374 5.57203 30.3145 5.34889 30.3145 5.07363V2.58165Z" fill="#B7B7B7"/>
<path d="M86.9921 9.95719C87.2168 9.98204 87.422 9.81941 87.4261 9.59282C87.4422 8.69218 87.1875 7.80382 86.69 7.04572C86.1919 6.28766 85.4788 5.70118 84.6457 5.35916C84.4364 5.2731 84.2061 5.39654 84.1391 5.6132C84.0728 5.82985 84.1956 6.05733 84.4036 6.14766C85.0538 6.43066 85.612 6.89816 86.0049 7.49651C86.3977 8.0948 86.6049 8.79245 86.6063 9.50253C86.607 9.7292 86.7668 9.93226 86.9921 9.95719Z" fill="#B7B7B7"/>
</svg>
