<svg width="99" height="21" viewBox="0 0 99 21" fill="none" xmlns="http://www.w3.org/2000/svg">
<path d="M30.171 3.95215C31.2849 3.95215 32.252 4.13591 33.0722 4.50344C33.9045 4.87096 34.5411 5.39775 34.9818 6.0838C35.4225 6.76985 35.6428 7.58453 35.6428 8.52784C35.6428 9.45893 35.4225 10.2736 34.9818 10.9719C34.5411 11.658 33.9045 12.1847 33.0722 12.5522C32.252 12.9198 31.2849 13.1035 30.171 13.1035H27.2698V16.8155H24.8828V3.95215H30.171ZM30.0608 11.0822C31.1013 11.0822 31.8909 10.8616 32.4295 10.4206C32.9681 9.97957 33.2374 9.34867 33.2374 8.52784C33.2374 7.707 32.9681 7.07611 32.4295 6.63508C31.8909 6.19406 31.1013 5.97354 30.0608 5.97354H27.2698V11.0822H30.0608Z" fill="#B7B7B7"/>
<path d="M41.7206 16.9439C40.7291 16.9439 39.8355 16.7295 39.0398 16.3007C38.2441 15.872 37.6199 15.2778 37.1669 14.5182C36.7262 13.7465 36.5059 12.8766 36.5059 11.9088C36.5059 10.941 36.7262 10.0773 37.1669 9.31775C37.6199 8.55823 38.2441 7.96406 39.0398 7.53524C39.8355 7.1065 40.7291 6.89209 41.7206 6.89209C42.7244 6.89209 43.6241 7.1065 44.4198 7.53524C45.2155 7.96406 45.8337 8.55823 46.2744 9.31775C46.7273 10.0773 46.9538 10.941 46.9538 11.9088C46.9538 12.8766 46.7273 13.7465 46.2744 14.5182C45.8337 15.2778 45.2155 15.872 44.4198 16.3007C43.6241 16.7295 42.7244 16.9439 41.7206 16.9439ZM41.7206 14.9777C42.5652 14.9777 43.263 14.6959 43.8139 14.1323C44.3647 13.5688 44.6402 12.8276 44.6402 11.9088C44.6402 10.99 44.3647 10.2488 43.8139 9.68526C43.263 9.12174 42.5652 8.83999 41.7206 8.83999C40.876 8.83999 40.1782 9.12174 39.6274 9.68526C39.0888 10.2488 38.8195 10.99 38.8195 11.9088C38.8195 12.8276 39.0888 13.5688 39.6274 14.1323C40.1782 14.6959 40.876 14.9777 41.7206 14.9777Z" fill="#B7B7B7"/>
<path d="M54.1226 6.89209C55.0774 6.89209 55.9281 7.10035 56.6748 7.51688C57.4338 7.9334 58.0275 8.52143 58.456 9.28102C58.8844 10.0405 59.0986 10.9165 59.0986 11.9088C59.0986 12.9011 58.8844 13.7832 58.456 14.555C58.0275 15.3145 57.4338 15.9026 56.6748 16.3192C55.9281 16.7357 55.0774 16.9439 54.1226 16.9439C52.8005 16.9439 51.7539 16.5029 50.9827 15.6208V20.3803H48.6875V7.00231H50.8725V8.28869C51.252 7.82315 51.7172 7.474 52.2681 7.24127C52.8311 7.00846 53.4493 6.89209 54.1226 6.89209ZM53.8655 14.9777C54.7101 14.9777 55.4018 14.6959 55.9404 14.1323C56.4912 13.5688 56.7667 12.8276 56.7667 11.9088C56.7667 10.99 56.4912 10.2488 55.9404 9.68526C55.4018 9.12174 54.7101 8.83999 53.8655 8.83999C53.3146 8.83999 52.8189 8.96861 52.3782 9.22586C51.9375 9.47088 51.5887 9.82617 51.3316 10.2917C51.0745 10.7573 50.946 11.2963 50.946 11.9088C50.946 12.5213 51.0745 13.0604 51.3316 13.526C51.5887 13.9914 51.9375 14.3529 52.3782 14.6101C52.8189 14.8551 53.3146 14.9777 53.8655 14.9777Z" fill="#B7B7B7"/>
<path d="M66.2515 6.89209C67.2063 6.89209 68.057 7.10035 68.8038 7.51688C69.5624 7.9334 70.1562 8.52143 70.5846 9.28102C71.013 10.0405 71.2272 10.9165 71.2272 11.9088C71.2272 12.9011 71.013 13.7832 70.5846 14.555C70.1562 15.3145 69.5624 15.9026 68.8038 16.3192C68.057 16.7357 67.2063 16.9439 66.2515 16.9439C64.9294 16.9439 63.8828 16.5029 63.1116 15.6208V20.3803H60.8164V7.00231H63.0014V8.28869C63.3809 7.82315 63.8461 7.474 64.397 7.24127C64.96 7.00846 65.5782 6.89209 66.2515 6.89209ZM65.9944 14.9777C66.839 14.9777 67.5307 14.6959 68.0693 14.1323C68.6201 13.5688 68.8956 12.8276 68.8956 11.9088C68.8956 10.99 68.6201 10.2488 68.0693 9.68526C67.5307 9.12174 66.839 8.83999 65.9944 8.83999C65.4436 8.83999 64.9478 8.96861 64.5071 9.22586C64.0664 9.47088 63.7176 9.82617 63.4605 10.2917C63.2034 10.7573 63.0749 11.2963 63.0749 11.9088C63.0749 12.5213 63.2034 13.0604 63.4605 13.526C63.7176 13.9914 64.0664 14.3529 64.5071 14.6101C64.9478 14.8551 65.4436 14.9777 65.9944 14.9777Z" fill="#B7B7B7"/>
<path d="M77.6032 14.996C78.6679 14.996 79.5554 14.6408 80.2657 13.9302L81.477 15.3452C81.0486 15.872 80.4981 16.2701 79.8247 16.5396C79.1514 16.8091 78.3923 16.9439 77.548 16.9439C76.4707 16.9439 75.5218 16.7295 74.702 16.3007C73.8815 15.872 73.2451 15.2778 72.7923 14.5182C72.3513 13.7465 72.1309 12.8766 72.1309 11.9088C72.1309 10.9533 72.3451 10.0957 72.7735 9.33612C73.2144 8.5643 73.8145 7.96406 74.5729 7.53524C75.3446 7.1065 76.2133 6.89209 77.1803 6.89209C78.0986 6.89209 78.931 7.09421 79.6775 7.49851C80.4367 7.89053 81.0367 8.46019 81.477 9.20749C81.9179 9.94257 82.1384 10.8062 82.1384 11.7985L74.628 13.2686C74.8611 13.8322 75.2344 14.261 75.7486 14.555C76.2628 14.849 76.881 14.996 77.6032 14.996ZM77.1803 8.72973C76.3361 8.72973 75.6502 9.00534 75.1241 9.55663C74.6099 10.1079 74.3531 10.8491 74.3531 11.7802V11.7985L79.898 10.7328C79.7389 10.1324 79.4145 9.64853 78.9247 9.28102C78.4474 8.91351 77.8662 8.72973 77.1803 8.72973Z" fill="#B7B7B7"/>
<path d="M86.0759 8.43568C86.7367 7.40662 87.8998 6.89209 89.5646 6.89209V9.07887C89.3685 9.04214 89.1913 9.02377 89.0322 9.02377C88.1384 9.02377 87.4407 9.28717 86.939 9.81395C86.4373 10.3284 86.1862 11.0757 86.1862 12.0559V16.8153H83.8906V7.00231H86.0759V8.43568Z" fill="#B7B7B7"/>
<path d="M94.1162 16.9439C93.3208 16.9439 92.5435 16.8398 91.7844 16.6315C91.0253 16.4233 90.4196 16.1599 89.9668 15.8413L90.848 14.0956C91.289 14.3896 91.8151 14.6285 92.427 14.8123C93.0515 14.9838 93.6634 15.0695 94.2634 15.0695C95.6345 15.0695 96.3196 14.7081 96.3196 13.9854C96.3196 13.6423 96.1424 13.4034 95.7873 13.2686C95.4447 13.1339 94.8879 13.0052 94.1162 12.8828C93.3082 12.7602 92.6475 12.6194 92.1332 12.4601C91.6316 12.3008 91.1906 12.0252 90.811 11.6332C90.444 11.2289 90.2605 10.6715 90.2605 9.96094C90.2605 9.02985 90.6464 8.28869 91.4174 7.7374C92.2009 7.17388 93.2531 6.89209 94.5753 6.89209C95.2486 6.89209 95.9219 6.97173 96.5952 7.13101C97.2686 7.278 97.8191 7.48015 98.2482 7.7374L97.3662 9.48317C96.5338 8.99312 95.5975 8.74809 94.5572 8.74809C93.8839 8.74809 93.3696 8.85221 93.0145 9.0605C92.6719 9.25651 92.5003 9.5199 92.5003 9.85068C92.5003 10.2182 92.6845 10.4816 93.0515 10.6409C93.431 10.7878 94.0122 10.9288 94.7958 11.0635C95.5793 11.186 96.222 11.3269 96.7236 11.4861C97.226 11.6454 97.6544 11.9149 98.0088 12.2947C98.3766 12.6745 98.5601 13.2135 98.5601 13.9118C98.5601 14.8306 98.1623 15.5657 97.3662 16.117C96.5708 16.6683 95.4872 16.9439 94.1162 16.9439Z" fill="#B7B7B7"/>
<path d="M9.93357 0.644531C7.33634 0.644531 4.84544 1.6771 3.00891 3.51508C1.17238 5.35307 0.140625 7.84592 0.140625 10.4452C0.140625 13.0445 1.17238 15.5374 3.00891 17.3753C4.84544 19.2133 7.33634 20.2459 9.93357 20.2459V10.4452V0.644531Z" fill="#959595"/>
<path d="M17.7697 4.07446C16.0815 4.07446 14.4625 4.74563 13.2687 5.94032C12.075 7.13501 11.4043 8.75537 11.4043 10.4449C11.4043 12.1344 12.075 13.7548 13.2687 14.9495C14.4625 16.1442 16.0815 16.8154 17.7697 16.8154V10.4449V4.07446Z" fill="#B7B7B7"/>
</svg>
