<svg width="104" height="21" viewBox="0 0 104 21" fill="none" xmlns="http://www.w3.org/2000/svg">
<path d="M10.0749 20.529C15.6025 20.529 20.0835 16.0445 20.0835 10.5125C20.0835 4.98061 15.6025 0.496094 10.0749 0.496094C4.54738 0.496094 0.0664062 4.98061 0.0664062 10.5125C0.0664062 16.0445 4.54738 20.529 10.0749 20.529Z" fill="#B7B7B7"/>
<path d="M10.0743 13.5859C11.7701 13.5859 13.1448 12.2101 13.1448 10.513C13.1448 8.81595 11.7701 7.44019 10.0743 7.44019C8.37858 7.44019 7.00391 8.81595 7.00391 10.513C7.00391 12.2101 8.37858 13.5859 10.0743 13.5859Z" fill="white" stroke="#959595" stroke-width="3"/>
<path d="M31.64 15.6765C35.1741 15.6765 37.3071 13.5575 37.3071 10.301C37.3071 7.04458 35.1741 4.92554 31.64 4.92554C28.1837 4.92554 26.0352 7.04458 26.0352 10.301C26.0352 13.5575 28.1837 15.6765 31.64 15.6765ZM31.64 13.4329C29.3513 13.4329 28.5106 12.6227 28.5106 10.301C28.5106 7.97943 29.3513 7.16923 31.64 7.16923C33.9286 7.16923 34.816 7.97943 34.816 10.301C34.816 12.6227 33.9286 13.4329 31.64 13.4329Z" fill="#B7B7B7"/>
<path d="M43.6673 15.6765C46.9212 15.6765 48.9919 14.0561 48.9919 11.4073V11.1736H46.3918V11.4073C46.3918 12.7785 45.6134 13.4329 43.714 13.4329C41.4254 13.4329 40.5691 12.6227 40.5691 10.301C40.5691 7.97943 41.4254 7.16923 43.714 7.16923C45.6134 7.16923 46.3918 7.82365 46.3918 9.1948V9.42851H48.9919V9.1948C48.9919 6.54599 46.9056 4.92554 43.6673 4.92554C40.2265 4.92554 38.0936 7.04458 38.0936 10.301C38.0936 13.5575 40.2265 15.6765 43.6673 15.6765Z" fill="#B7B7B7"/>
<path d="M55.8096 15.5207V7.18476H59.6863V5.0813H49.5977V7.18476H53.4743V15.5207H55.8096Z" fill="#B7B7B7"/>
<path d="M65.8958 15.6765C69.4298 15.6765 71.5627 13.5575 71.5627 10.301C71.5627 7.04458 69.4298 4.92554 65.8958 4.92554C62.4395 4.92554 60.291 7.04458 60.291 10.301C60.291 13.5575 62.4395 15.6765 65.8958 15.6765ZM65.8958 13.4329C63.6072 13.4329 62.7664 12.6227 62.7664 10.301C62.7664 7.97943 63.6072 7.16923 65.8958 7.16923C68.1844 7.16923 69.0718 7.97943 69.0718 10.301C69.0718 12.6227 68.1844 13.4329 65.8958 13.4329Z" fill="#B7B7B7"/>
<path d="M74.9134 15.5207V12.6382H78.0274C80.4402 12.6382 81.9975 11.2515 81.9975 8.85196C81.9975 6.45244 80.4402 5.0813 78.0274 5.0813H72.5781V15.5207H74.9134ZM77.7783 7.18476C79.0705 7.18476 79.6775 7.57431 79.6775 8.85196C79.6775 10.1607 79.0705 10.5347 77.7783 10.5347H74.9134V7.18476H77.7783Z" fill="#B7B7B7"/>
<path d="M87.8701 15.6765C91.2799 15.6765 92.9921 13.9625 92.9921 11.158V5.0813H90.6568V10.9865C90.6568 12.7628 90.0031 13.4017 87.8701 13.4017C85.7532 13.4017 85.0834 12.7628 85.0834 10.9865V5.0813H82.748V11.158C82.748 13.9625 84.4763 15.6765 87.8701 15.6765Z" fill="#B7B7B7"/>
<path d="M98.9016 15.6765C102.218 15.6765 103.541 14.1496 103.541 12.4512C103.541 11.0178 102.7 9.88037 100.365 9.50644L97.4378 9.03894C96.5663 8.88315 96.2237 8.66501 96.2237 8.05736C96.2237 7.38736 96.7372 7.06016 98.4188 7.06016C100.49 7.06016 101.003 7.48086 101.003 8.47808V8.69622H103.355V8.60272C103.355 6.40575 101.859 4.92554 98.6525 4.92554C95.1492 4.92554 93.873 6.57714 93.873 8.15086C93.873 9.84923 94.9783 10.7841 96.8461 11.0801L99.7731 11.5008C100.848 11.6878 101.206 11.9215 101.206 12.5603C101.206 13.2615 100.769 13.542 98.9016 13.542C96.784 13.542 96.3011 13.1524 96.3011 12.1864V11.9059H93.9658V11.9994C93.9658 14.43 95.7409 15.6765 98.9016 15.6765Z" fill="#B7B7B7"/>
</svg>
