<svg width="79" height="48" viewBox="0 0 79 48" fill="none" xmlns="http://www.w3.org/2000/svg">
<path fill-rule="evenodd" clip-rule="evenodd" d="M39.7178 0.469971C29.3531 0.469971 22.8752 5.65642 20.284 16.0293C24.1708 10.8429 28.7053 8.89794 33.8877 10.1946C36.8445 10.9336 38.9578 13.0817 41.297 15.4574C45.1075 19.3285 49.5182 23.809 59.1516 23.809C69.5163 23.809 75.9943 18.6225 78.5854 8.24964C74.6987 13.4361 70.1641 15.381 64.9818 14.0844C62.025 13.3453 59.9117 11.1973 57.5725 8.82159C53.762 4.95048 49.3512 0.469971 39.7178 0.469971ZM20.284 23.809C9.91933 23.809 3.44139 28.9954 0.85022 39.3683C4.73698 34.1819 9.27154 32.2369 14.4539 33.5336C17.4107 34.2741 19.5239 36.4207 21.8632 38.7964C25.6737 42.6675 30.0844 47.148 39.7178 47.148C50.0825 47.148 56.5605 41.9615 59.1516 31.5886C55.2649 36.7751 50.7303 38.72 45.548 37.4234C42.5912 36.6843 40.4779 34.5363 38.1387 32.1606C34.3282 28.2895 29.9174 23.809 20.284 23.809Z" fill="#38BDF8"/>
</svg>
