<svg width="46" height="50" viewBox="0 0 46 50" fill="none" xmlns="http://www.w3.org/2000/svg">
<path d="M4.96845 45.0019L0.956238 0H45.0437L41.0272 44.9947L22.973 50L4.96845 45.0019Z" fill="#264DE4"/>
<path d="M37.5887 42.1296L41.0211 3.67944H23V46.1742L37.5887 42.1296Z" fill="#2965F1"/>
<path d="M10.1543 20.3702L10.6489 25.8894H23V20.3702H10.1543ZM9.66204 14.7183H23V9.19897H9.16028L9.66204 14.7183ZM23 34.7043L22.9758 34.7108L16.8289 33.051L16.4361 28.6491H10.8954L11.6688 37.3152L22.9746 40.4539L23 40.4467V34.7043Z" fill="#EBEBEB"/>
<path d="M22.981 20.3702V25.8894H29.7773L29.1367 33.0475L22.981 34.7089V40.4511L34.2958 37.3152L34.3788 36.3827L35.6757 21.8522L35.8104 20.3702L36.8068 9.19897H22.981V14.7183H30.7582L30.2559 20.3702H22.981Z" fill="white"/>
</svg>
