<svg width="39" height="58" viewBox="0 0 39 58" fill="none" xmlns="http://www.w3.org/2000/svg">
<path d="M10.2431 57.4329C15.5099 57.4329 19.7843 53.1584 19.7843 47.8916V38.3503H10.2431C4.97631 38.3503 0.701828 42.6248 0.701828 47.8916C0.701828 53.1584 4.97631 57.4329 10.2431 57.4329Z" fill="#0ACF83"/>
<path d="M0.701828 28.8091C0.701828 23.5423 4.97631 19.2678 10.2431 19.2678H19.7843V38.3503H10.2431C4.97631 38.3503 0.701828 34.0759 0.701828 28.8091Z" fill="#A259FF"/>
<path d="M0.701904 9.72656C0.701904 4.45979 4.97639 0.185303 10.2432 0.185303H19.7844V19.2678H10.2432C4.97639 19.2678 0.701904 14.9933 0.701904 9.72656Z" fill="#F24E1E"/>
<path d="M19.7843 0.185303H29.3256C34.5923 0.185303 38.8668 4.45979 38.8668 9.72656C38.8668 14.9933 34.5923 19.2678 29.3256 19.2678H19.7843V0.185303Z" fill="#FF7262"/>
<path d="M38.8668 28.8091C38.8668 34.0759 34.5923 38.3503 29.3256 38.3503C24.0588 38.3503 19.7843 34.0759 19.7843 28.8091C19.7843 23.5423 24.0588 19.2678 29.3256 19.2678C34.5923 19.2678 38.8668 23.5423 38.8668 28.8091Z" fill="#1ABCFE"/>
</svg>
