<svg width="50" height="48" viewBox="0 0 50 48" fill="none" xmlns="http://www.w3.org/2000/svg">
<path d="M3.18873 11.3572C-1.25688 17.6832 -0.703459 25.9134 2.6926 32.6349C2.77334 32.7961 2.85798 32.9546 2.94131 33.1132C2.99472 33.2138 3.04484 33.3169 3.10018 33.4162C3.13144 33.4755 3.16658 33.5335 3.19914 33.5902C3.25708 33.6972 3.31633 33.7991 3.37623 33.9035C3.48171 34.0878 3.58979 34.2709 3.70047 34.454C3.76167 34.5545 3.82223 34.6551 3.88538 34.7556C4.00779 34.9516 4.13345 35.145 4.26171 35.3383C4.31511 35.4209 4.36718 35.5034 4.42187 35.5833C4.59897 35.845 4.77997 36.1054 4.96681 36.3619C4.97145 36.3685 4.97654 36.3761 4.98241 36.3825C5.01175 36.4238 5.04428 36.4638 5.07421 36.505C5.23568 36.7255 5.40236 36.9433 5.57099 37.1586C5.63286 37.2373 5.69535 37.3159 5.75785 37.3945C5.90825 37.5815 6.06126 37.7671 6.21686 37.9527C6.2748 38.0224 6.33341 38.092 6.392 38.1603C6.601 38.404 6.8139 38.6463 7.03135 38.8835C7.03535 38.8872 7.04048 38.8925 7.04435 38.8964C7.05348 38.9067 7.06128 38.9131 7.06908 38.9234C7.28133 39.1529 7.49879 39.3772 7.71888 39.6016C7.78723 39.6712 7.85691 39.7408 7.92722 39.8091C8.0978 39.9793 8.27099 40.1469 8.44613 40.3132C8.5171 40.3802 8.58742 40.4485 8.65839 40.513C8.89212 40.7309 9.12846 40.9449 9.36936 41.1537C9.37336 41.1574 9.37649 41.1603 9.38043 41.1628C9.42144 41.1989 9.46377 41.2324 9.50414 41.2672C9.71639 41.449 9.93255 41.6295 10.15 41.8074C10.2385 41.8783 10.3284 41.9479 10.4176 42.0188C10.5953 42.1593 10.775 42.2986 10.956 42.4352C11.0517 42.5074 11.1474 42.5796 11.2438 42.6518C11.4437 42.7975 11.6449 42.9406 11.848 43.0811C11.9222 43.134 11.9938 43.1855 12.0681 43.2358C12.0889 43.25 12.1078 43.2642 12.1286 43.2784C12.3213 43.4099 12.5186 43.5362 12.7152 43.6625C12.7999 43.718 12.8839 43.776 12.9692 43.8301C13.2713 44.0196 13.578 44.2066 13.8878 44.3871C13.9718 44.4348 14.0571 44.4812 14.1418 44.5289C14.3696 44.6591 14.5988 44.7867 14.8312 44.9118C14.9569 44.9788 15.0858 45.042 15.2128 45.1064C15.3768 45.1915 15.5396 45.2779 15.7063 45.3604C15.744 45.3785 15.7831 45.3965 15.8202 45.4145C15.8873 45.4467 15.955 45.4777 16.0221 45.5112C16.2805 45.6337 16.541 45.7536 16.804 45.8696C16.86 45.8941 16.9141 45.9186 16.9694 45.9431C17.2709 46.0733 17.5749 46.1983 17.8816 46.3182C17.9551 46.3479 18.0294 46.3763 18.1036 46.4046C18.3875 46.5129 18.6753 46.6199 18.9643 46.7205C19.0008 46.7333 19.036 46.745 19.0724 46.7578C19.3895 46.8674 19.7098 46.9692 20.0321 47.0685C20.1089 47.0904 20.1864 47.1149 20.2639 47.1368C20.592 47.2348 20.9163 47.3521 21.2548 47.414C42.7548 51.2957 49 34.6225 49 34.6225C43.7549 41.3879 34.4444 43.1722 25.6231 41.1857C25.2891 41.1109 24.9649 41.0077 24.6387 40.9123C24.556 40.8878 24.4746 40.8634 24.3932 40.8389C24.0748 40.7422 23.759 40.6403 23.4453 40.5333C23.4023 40.5179 23.3587 40.5024 23.315 40.4869C23.0338 40.3889 22.7557 40.2858 22.479 40.1801C22.4009 40.1491 22.3228 40.1195 22.2446 40.0886C21.9412 39.97 21.6398 39.8462 21.3422 39.7173C21.281 39.6915 21.2224 39.6644 21.1619 39.6386C20.906 39.5239 20.6527 39.4079 20.4008 39.288C20.3279 39.2532 20.2549 39.2197 20.1807 39.1836C19.9828 39.088 19.7871 38.9861 19.5919 38.8868C19.4612 38.8187 19.3284 38.7543 19.1988 38.683C18.9604 38.5568 18.7262 38.4253 18.4931 38.2912C18.4142 38.2473 18.3342 38.2051 18.2547 38.1597C17.9448 37.9791 17.6387 37.7921 17.3357 37.6026C17.252 37.5498 17.1704 37.4933 17.0877 37.4389C16.868 37.2984 16.6493 37.1553 16.4338 37.0085C16.3623 36.9605 16.2935 36.9092 16.2231 36.8617C16.0151 36.716 15.8092 36.5687 15.605 36.4192C15.5122 36.3511 15.4209 36.2825 15.3308 36.2143C15.1436 36.0723 14.9575 35.9292 14.7729 35.7824C14.6896 35.7167 14.6062 35.6509 14.5242 35.5851C14.2898 35.3944 14.058 35.2023 13.8295 35.005C13.8054 34.9844 13.7794 34.9638 13.7533 34.9419C13.5059 34.7266 13.263 34.5061 13.0228 34.2844C12.9531 34.2186 12.8854 34.1542 12.8171 34.0884C12.6393 33.9208 12.4642 33.752 12.2923 33.5792C12.2233 33.5109 12.1543 33.4438 12.0866 33.3755C11.8678 33.1538 11.6529 32.9295 11.4426 32.7013C11.4322 32.6897 11.4212 32.6794 11.4108 32.6678C11.1881 32.4267 10.9706 32.1805 10.7577 31.9317C10.6998 31.8633 10.6438 31.7976 10.5865 31.7306C10.4276 31.5411 10.27 31.349 10.1164 31.1556C10.0588 31.0859 10.0012 31.0146 9.9441 30.9428C9.75902 30.7051 9.57821 30.4681 9.40114 30.2273C4.50361 23.6135 2.74419 14.4914 6.65857 7" fill="#0868AC"/>
<path d="M16.4391 5.77465C13.1914 10.4839 13.3676 16.7879 15.9011 21.7684C16.3259 22.6034 16.8034 23.4133 17.3375 24.1847C17.8242 24.8871 18.3635 25.7235 19.0093 26.2881C19.2435 26.5479 19.4881 26.8011 19.738 27.0502C19.8011 27.1152 19.8656 27.1775 19.9301 27.2411C20.1728 27.4784 20.4194 27.7116 20.6746 27.9383C20.6851 27.9462 20.6943 27.9568 20.7048 27.9648C20.7075 27.9676 20.7102 27.9687 20.712 27.9716C20.9942 28.2208 21.2855 28.4607 21.5815 28.6966C21.6473 28.7469 21.7124 28.8 21.7788 28.8517C22.0755 29.081 22.378 29.3063 22.6884 29.521C22.6977 29.5278 22.7055 29.5343 22.7148 29.5409C22.8516 29.6363 22.991 29.7251 23.1298 29.8166C23.1962 29.8604 23.2593 29.9067 23.3264 29.9478C23.5481 30.091 23.7723 30.2301 24.0006 30.364C24.0328 30.3839 24.0643 30.4011 24.0959 30.4196C24.2926 30.5336 24.4918 30.6463 24.6918 30.755C24.7615 30.7947 24.8326 30.8292 24.9036 30.8663C25.0417 30.9392 25.1798 31.0134 25.3206 31.0837C25.3416 31.0943 25.3633 31.1036 25.3837 31.1129C25.6698 31.2547 25.9585 31.3912 26.2532 31.5211C26.3163 31.549 26.3814 31.5741 26.4452 31.6007C26.6807 31.7014 26.9188 31.7995 27.1581 31.8923C27.2594 31.9307 27.362 31.9678 27.4633 32.0049C27.6804 32.0858 27.8981 32.16 28.1177 32.2342C28.217 32.266 28.3144 32.2992 28.4137 32.3296C28.7261 32.4277 29.0345 32.551 29.3601 32.6053C46.1288 35.4046 50 22.3956 50 22.3956C46.5103 27.4601 39.7523 29.8762 32.5406 27.9902C32.2203 27.9053 31.9046 27.8126 31.5909 27.7131C31.4948 27.684 31.4008 27.6522 31.3054 27.6204C31.0825 27.5475 30.8608 27.4706 30.6411 27.3897C30.5405 27.3526 30.4399 27.3155 30.3412 27.2771C30.1005 27.1843 29.8624 27.0875 29.6263 26.9868C29.5619 26.959 29.4967 26.9338 29.4336 26.9046C29.1376 26.7747 28.8463 26.6382 28.5589 26.4951C28.4109 26.4222 28.2655 26.3453 28.1202 26.2697C28.036 26.226 27.9512 26.1823 27.867 26.1385C27.6802 26.0365 27.4947 25.9304 27.3119 25.8231C27.2685 25.7979 27.2231 25.774 27.179 25.7475C26.9521 25.6137 26.7285 25.4758 26.5068 25.334C26.4384 25.2902 26.3727 25.2425 26.3042 25.1975C26.1582 25.102 26.0122 25.0053 25.8689 24.9072C25.5597 24.6925 25.2592 24.4672 24.9626 24.2392C24.8942 24.1848 24.8258 24.1318 24.7587 24.0775C21.6019 21.566 19.0998 18.1344 17.9101 14.2429C16.6634 10.207 16.9322 5.6765 19.0922 2" fill="#0868AC"/>
<path d="M28.6217 1.95393C26.717 4.74069 26.5299 8.20155 27.8515 11.2795C29.2452 14.5464 32.1013 17.1094 35.4344 18.3244C35.5718 18.3752 35.7092 18.4206 35.8486 18.4675C35.9094 18.4857 35.9696 18.5065 36.0311 18.5247C36.2274 18.5858 36.4224 18.6574 36.6252 18.6951C45.8365 20.4645 48.3348 13.9959 49 13.0438C46.8114 16.1766 43.1334 16.9286 38.6208 15.8397C38.2643 15.7534 37.8725 15.6255 37.5289 15.5045C37.0884 15.3484 36.6542 15.1704 36.2324 14.9689C35.431 14.5863 34.6672 14.1216 33.9592 13.5898C29.9209 10.5438 27.4124 4.73261 30.0474 0" fill="#0868AC"/>
</svg>
