<svg width="50" height="50" viewBox="0 0 50 50" fill="none" xmlns="http://www.w3.org/2000/svg">
<path d="M50 0H0V50H50V0Z" fill="#F7DF1E"/>
<path d="M33.5873 39.0627C34.5945 40.7072 35.9048 41.9159 38.2222 41.9159C40.1691 41.9159 41.4127 40.9429 41.4127 39.5984C41.4127 37.9873 40.1349 37.4167 37.9921 36.4794L36.8175 35.9754C33.427 34.531 31.1746 32.7214 31.1746 28.896C31.1746 25.3722 33.8595 22.6897 38.0556 22.6897C41.0429 22.6897 43.1905 23.7294 44.7381 26.4516L41.0794 28.8008C40.2738 27.3564 39.4048 26.7873 38.0556 26.7873C36.6794 26.7873 35.8072 27.6603 35.8072 28.8008C35.8072 30.2103 36.6802 30.781 38.6961 31.654L39.8707 32.1572C43.8627 33.8691 46.1167 35.6143 46.1167 39.5381C46.1167 43.7683 42.7937 46.0857 38.331 46.0857C33.9675 46.0857 31.1484 44.0064 29.7691 41.281L33.5873 39.0627ZM16.9897 39.4699C17.7278 40.7794 18.3992 41.8865 20.0135 41.8865C21.5572 41.8865 22.531 41.2826 22.531 38.9341V22.9579H27.2294V38.9976C27.2294 43.8627 24.377 46.077 20.2135 46.077C16.4516 46.077 14.273 44.1302 13.1651 41.7853L16.9897 39.4699Z" fill="black"/>
</svg>
