<svg width="68" height="49" viewBox="0 0 68 49" fill="none" xmlns="http://www.w3.org/2000/svg">
<path d="M50.2396 14.8843C50.2396 14.8843 44.8377 32.4917 44.3976 33.9451C44.2375 32.4501 40.2761 0.848145 40.2761 0.848145C31.0729 0.848145 26.1512 7.65856 23.5503 14.8427C23.5503 14.8427 16.988 32.4917 16.4277 33.9867C16.3877 32.6163 15.4274 15.0503 15.4274 15.0503C14.8672 6.24665 7.10447 0.88967 0.822266 0.88967L8.42494 48.7702C18.0683 48.7287 23.2701 41.9598 25.9911 34.7756C25.9911 34.7756 31.7931 19.203 32.0333 18.4971C32.0732 19.1615 36.1947 48.7702 36.1947 48.7702C45.8781 48.7702 51.0799 42.4166 53.8809 35.4816L67.4457 0.88967C57.8823 0.88967 52.8405 7.65857 50.2396 14.8843Z" fill="#4353FF"/>
</svg>
